<svg width="16" height="16" viewBox="0 0 16 16" fill="none" xmlns="http://www.w3.org/2000/svg">
<path d="M10.707 14.364C10.8945 14.1764 10.9998 13.9221 10.9998 13.657C10.9998 13.3918 10.8945 13.1375 10.707 12.95L5.757 7.99995L10.707 3.04995C10.8892 2.86135 10.99 2.60875 10.9877 2.34655C10.9854 2.08435 10.8802 1.83354 10.6948 1.64813C10.5094 1.46272 10.2586 1.35756 9.9964 1.35528C9.73421 1.353 9.4816 1.45379 9.293 1.63595L3.636 7.29295C3.44853 7.48048 3.34322 7.73479 3.34322 7.99995C3.34322 8.26512 3.44853 8.51942 3.636 8.70695L9.293 14.364C9.48053 14.5514 9.73484 14.6567 10 14.6567C10.2652 14.6567 10.5195 14.5514 10.707 14.364Z" fill="white"/>
</svg>
