<svg width="18" height="20" viewBox="0 0 18 20" fill="none" xmlns="http://www.w3.org/2000/svg">
<path d="M10.9932 18.5C10.8389 18.7073 10.6526 18.8906 10.4395 19.042C10.0717 19.303 9.64056 19.4589 9.19336 19.4932L9.00098 19.5H8.99902C8.48376 19.5006 7.98075 19.3402 7.56055 19.042C7.34736 18.8906 7.16105 18.7073 7.00684 18.5H10.9932ZM9 0.5C9.63419 0.5 10.1707 0.888355 10.3906 1.44238L10.4824 1.67383L10.7227 1.74023C13.4725 2.49755 15.5 5.01531 15.5 8V11.793L17.3535 13.6465C17.4473 13.7402 17.4999 13.8674 17.5 14V16C17.5 16.1326 17.4473 16.2597 17.3535 16.3535C17.2597 16.4473 17.1326 16.5 17 16.5H1C0.867391 16.5 0.740252 16.4473 0.646484 16.3535C0.552717 16.2597 0.5 16.1326 0.5 16V14L0.509766 13.9023C0.528968 13.8062 0.576103 13.7168 0.646484 13.6465L2.5 11.793V8C2.5 5.01527 4.52807 2.49841 7.27832 1.74023L7.51758 1.67383L7.60938 1.44238C7.82933 0.888355 8.36581 0.5 9 0.5ZM16.5 14.207L14.6455 12.3525L14.584 12.2773C14.5299 12.1965 14.5 12.1005 14.5 12V8C14.5 4.96686 12.0331 2.5 9 2.5C5.96686 2.5 3.5 4.96686 3.5 8V12L3.49023 12.0977C3.47103 12.1938 3.4239 12.2832 3.35352 12.3535L1.5 14.207V15.5H16.5V14.207Z" stroke="#B9B9B9"/>
</svg>
