<svg width="15" height="18" viewBox="0 0 15 18" fill="none" xmlns="http://www.w3.org/2000/svg">
<path d="M15 7.5V13.3333C15 13.7754 14.8244 14.1993 14.5118 14.5118C14.1993 14.8244 13.7754 15 13.3333 15H1.66667C1.22464 15 0.800716 14.8244 0.488155 14.5118C0.175595 14.1993 0 13.7754 0 13.3333V7.5H15ZM10.8333 0C11.0543 0 11.2663 0.0877973 11.4226 0.244078C11.5789 0.400358 11.6667 0.61232 11.6667 0.833333V1.66667H13.3333C13.7754 1.66667 14.1993 1.84226 14.5118 2.15482C14.8244 2.46738 15 2.89131 15 3.33333V5.83333H0V3.33333C0 2.89131 0.175595 2.46738 0.488155 2.15482C0.800716 1.84226 1.22464 1.66667 1.66667 1.66667H3.33333V0.833333C3.33333 0.61232 3.42113 0.400358 3.57741 0.244078C3.73369 0.0877973 3.94565 0 4.16667 0C4.38768 0 4.59964 0.0877973 4.75592 0.244078C4.9122 0.400358 5 0.61232 5 0.833333V1.66667H10V0.833333C10 0.61232 10.0878 0.400358 10.2441 0.244078C10.4004 0.0877973 10.6123 0 10.8333 0Z" fill="black"/>
</svg>
