<svg width="11" height="11" viewBox="0 0 11 11" fill="none" xmlns="http://www.w3.org/2000/svg">
<path d="M0 9.20833C0 10.1292 0.704167 10.8333 1.625 10.8333H9.20833C10.1292 10.8333 10.8333 10.1292 10.8333 9.20833V4.875H0V9.20833ZM9.20833 1.08333H8.125V0.541667C8.125 0.216667 7.90833 0 7.58333 0C7.25833 0 7.04167 0.216667 7.04167 0.541667V1.08333H3.79167V0.541667C3.79167 0.216667 3.575 0 3.25 0C2.925 0 2.70833 0.216667 2.70833 0.541667V1.08333H1.625C0.704167 1.08333 0 1.7875 0 2.70833V3.79167H10.8333V2.70833C10.8333 1.7875 10.1292 1.08333 9.20833 1.08333Z" fill="#008473"/>
</svg>
