<svg width="19" height="17" viewBox="0 0 19 17" fill="none" xmlns="http://www.w3.org/2000/svg">
<path d="M1.83333 1.83333H4.58333L6.41667 0H11.9167L13.75 1.83333H16.5C16.9862 1.83333 17.4525 2.02649 17.7964 2.3703C18.1402 2.71412 18.3333 3.18044 18.3333 3.66667V14.6667C18.3333 15.1529 18.1402 15.6192 17.7964 15.963C17.4525 16.3068 16.9862 16.5 16.5 16.5H1.83333C1.3471 16.5 0.880788 16.3068 0.536971 15.963C0.193154 15.6192 0 15.1529 0 14.6667V3.66667C0 3.18044 0.193154 2.71412 0.536971 2.3703C0.880788 2.02649 1.3471 1.83333 1.83333 1.83333ZM9.16667 4.58333C7.95109 4.58333 6.7853 5.06622 5.92576 5.92576C5.06622 6.7853 4.58333 7.95109 4.58333 9.16667C4.58333 10.3822 5.06622 11.548 5.92576 12.4076C6.7853 13.2671 7.95109 13.75 9.16667 13.75C10.3822 13.75 11.548 13.2671 12.4076 12.4076C13.2671 11.548 13.75 10.3822 13.75 9.16667C13.75 7.95109 13.2671 6.7853 12.4076 5.92576C11.548 5.06622 10.3822 4.58333 9.16667 4.58333ZM9.16667 6.41667C9.89601 6.41667 10.5955 6.7064 11.1112 7.22212C11.6269 7.73785 11.9167 8.43732 11.9167 9.16667C11.9167 9.89601 11.6269 10.5955 11.1112 11.1112C10.5955 11.6269 9.89601 11.9167 9.16667 11.9167C8.43732 11.9167 7.73785 11.6269 7.22212 11.1112C6.7064 10.5955 6.41667 9.89601 6.41667 9.16667C6.41667 8.43732 6.7064 7.73785 7.22212 7.22212C7.73785 6.7064 8.43732 6.41667 9.16667 6.41667Z" fill="#008473"/>
</svg>
