<svg width="20" height="20" viewBox="0 0 20 20" fill="none" xmlns="http://www.w3.org/2000/svg">
<path d="M0.899902 9.8999C0.899902 11.0818 1.13269 12.2521 1.58499 13.3441C2.03728 14.436 2.70021 15.4281 3.53594 16.2639C4.37167 17.0996 5.36382 17.7625 6.45575 18.2148C7.54768 18.6671 8.71801 18.8999 9.8999 18.8999C11.0818 18.8999 12.2521 18.6671 13.3441 18.2148C14.436 17.7625 15.4281 17.0996 16.2639 16.2639C17.0996 15.4281 17.7625 14.436 18.2148 13.3441C18.6671 12.2521 18.8999 11.0818 18.8999 9.8999C18.8999 8.71801 18.6671 7.54768 18.2148 6.45575C17.7625 5.36382 17.0996 4.37167 16.2639 3.53594C15.4281 2.70021 14.436 2.03728 13.3441 1.58499C12.2521 1.13269 11.0818 0.899902 9.8999 0.899902C8.71801 0.899902 7.54768 1.13269 6.45575 1.58499C5.36382 2.03728 4.37167 2.70021 3.53594 3.53594C2.70021 4.37167 2.03728 5.36382 1.58499 6.45575C1.13269 7.54768 0.899902 8.71801 0.899902 9.8999Z" stroke="#B9B9B9" stroke-width="1.8" stroke-linecap="round" stroke-linejoin="round"/>
<path d="M12.6999 6.8999C12.5188 6.58566 12.2556 6.32661 11.9385 6.15046C11.6214 5.97431 11.2624 5.8877 10.8999 5.8999H8.8999C8.36947 5.8999 7.86076 6.11062 7.48569 6.48569C7.11062 6.86076 6.8999 7.36947 6.8999 7.8999C6.8999 8.43034 7.11062 8.93904 7.48569 9.31412C7.86076 9.68919 8.36947 9.8999 8.8999 9.8999H10.8999C11.4303 9.8999 11.939 10.1106 12.3141 10.4857C12.6892 10.8608 12.8999 11.3695 12.8999 11.8999C12.8999 12.4303 12.6892 12.939 12.3141 13.3141C11.939 13.6892 11.4303 13.8999 10.8999 13.8999H8.8999C8.53739 13.9121 8.17839 13.8255 7.86132 13.6493C7.54425 13.4732 7.28105 13.2141 7.0999 12.8999M9.8999 4.8999V14.8999" stroke="#B9B9B9" stroke-width="1.8" stroke-linecap="round" stroke-linejoin="round"/>
</svg>
