<svg width="14" height="14" viewBox="0 0 14 14" fill="none" xmlns="http://www.w3.org/2000/svg">
<path d="M7 10.8889C7.22037 10.8889 7.40522 10.8142 7.55456 10.6649C7.70389 10.5156 7.7783 10.331 7.77778 10.1111C7.77726 9.89126 7.70259 9.70667 7.55378 9.55733C7.40496 9.408 7.22037 9.33333 7 9.33333C6.77963 9.33333 6.59504 9.408 6.44622 9.55733C6.29741 9.70667 6.22274 9.89126 6.22222 10.1111C6.2217 10.331 6.29637 10.5158 6.44622 10.6657C6.59607 10.8155 6.78067 10.8899 7 10.8889ZM7 7.77778C7.22037 7.77778 7.40522 7.70311 7.55456 7.55378C7.70389 7.40444 7.7783 7.21985 7.77778 7V3.88889C7.77778 3.66852 7.70311 3.48393 7.55378 3.33511C7.40444 3.1863 7.21985 3.11163 7 3.11111C6.78015 3.11059 6.59556 3.18526 6.44622 3.33511C6.29689 3.48496 6.22222 3.66956 6.22222 3.88889V7C6.22222 7.22037 6.29689 7.40522 6.44622 7.55456C6.59556 7.70389 6.78015 7.7783 7 7.77778ZM4.725 14C4.51759 14 4.32004 13.9611 4.13233 13.8833C3.94463 13.8056 3.77922 13.6954 3.63611 13.5528L0.447222 10.3639C0.30463 10.2213 0.194445 10.0559 0.116667 9.86767C0.038889 9.67945 0 9.48215 0 9.27578V4.72578C0 4.51837 0.038889 4.32082 0.116667 4.13311C0.194445 3.94541 0.30463 3.78 0.447222 3.63689L3.63611 0.448C3.7787 0.305407 3.94411 0.195222 4.13233 0.117444C4.32056 0.0396667 4.51811 0.000518519 4.725 0H9.275C9.48241 0 9.68022 0.038889 9.86844 0.116667C10.0567 0.194445 10.2218 0.30463 10.3639 0.447222L13.5528 3.63611C13.6954 3.7787 13.8056 3.94411 13.8833 4.13233C13.9611 4.32056 14 4.51811 14 4.725V9.275C14 9.48241 13.9611 9.68022 13.8833 9.86844C13.8056 10.0567 13.6954 10.2218 13.5528 10.3639L10.3639 13.5528C10.2213 13.6954 10.0559 13.8056 9.86767 13.8833C9.67945 13.9611 9.48189 14 9.275 14H4.725Z" fill="#008473"/>
</svg>
