<svg width="42" height="36" viewBox="0 0 42 36" fill="none" xmlns="http://www.w3.org/2000/svg">
<path d="M1.5 36C1.10218 36 0.720644 35.842 0.43934 35.5607C0.158035 35.2794 0 34.8978 0 34.5V1.5C0 1.10218 0.158035 0.720645 0.43934 0.43934C0.720644 0.158036 1.10218 0 1.5 0H40.5C40.8978 0 41.2794 0.158036 41.5607 0.43934C41.842 0.720645 42 1.10218 42 1.5V34.5C42 34.8978 41.842 35.2794 41.5607 35.5607C41.2794 35.842 40.8978 36 40.5 36H1.5ZM16.29 25.29L13.059 22.059C12.7777 21.7778 12.3962 21.6198 11.9985 21.6198C11.6008 21.6198 11.2193 21.7778 10.938 22.059L3 30.003H39.501L28.152 16.383C28.0112 16.2137 27.8349 16.0774 27.6356 15.9839C27.4362 15.8904 27.2187 15.8419 26.9985 15.8419C26.7783 15.8419 26.5608 15.8904 26.3614 15.9839C26.1621 16.0774 25.9858 16.2137 25.845 16.383L18.504 25.191C18.3705 25.3512 18.205 25.4818 18.0181 25.5744C17.8313 25.667 17.6272 25.7197 17.4188 25.729C17.2105 25.7383 17.0025 25.7041 16.8081 25.6285C16.6138 25.5529 16.4373 25.4376 16.29 25.29ZM9 12C9.0002 12.5911 9.11683 13.1765 9.34323 13.7225C9.56963 14.2686 9.90138 14.7647 10.3195 15.1826C10.7377 15.6005 11.234 15.9319 11.7802 16.1579C12.3265 16.384 12.9119 16.5002 13.503 16.5C14.0941 16.4998 14.6795 16.3832 15.2255 16.1568C15.7716 15.9304 16.2677 15.5986 16.6856 15.1805C17.1035 14.7623 17.4349 14.266 17.6609 13.7198C17.887 13.1735 18.0032 12.5881 18.003 11.997C18.0026 10.8031 17.528 9.65831 16.6835 8.8144C15.839 7.97048 14.6939 7.4966 13.5 7.497C12.3061 7.4974 11.1613 7.97204 10.3174 8.81652C9.47348 9.661 8.9996 10.8061 9 12Z" fill="#686868"/>
</svg>
