<svg width="15" height="10" viewBox="0 0 15 10" fill="none" xmlns="http://www.w3.org/2000/svg">
<path fill-rule="evenodd" clip-rule="evenodd" d="M1.875 1.125V1.875H1.125C0.826631 1.875 0.540483 1.99353 0.329505 2.2045C0.118526 2.41548 0 2.70163 0 3V8.25C0 8.54837 0.118526 8.83452 0.329505 9.0455C0.540483 9.25647 0.826631 9.375 1.125 9.375H11.375C11.5227 9.375 11.669 9.3459 11.8055 9.28936C11.942 9.23283 12.066 9.14996 12.1705 9.0455C12.275 8.94103 12.3578 8.81701 12.4144 8.68052C12.4709 8.54403 12.5 8.39774 12.5 8.25V7.5H13.25C13.87 7.5 14.375 6.995 14.375 6.375V1.125C14.375 0.505 13.87 0 13.25 0H3C2.38 0 1.875 0.505 1.875 1.125ZM3.125 1.25V1.875H11.375C11.5227 1.875 11.669 1.9041 11.8055 1.96064C11.942 2.01717 12.066 2.10004 12.1705 2.2045C12.275 2.30897 12.3578 2.43299 12.4144 2.56948C12.4709 2.70597 12.5 2.85226 12.5 3V6.25H13.125V1.25H3.125ZM5 5.625C5 5.29348 5.1317 4.97554 5.36612 4.74112C5.60054 4.5067 5.91848 4.375 6.25 4.375C6.58152 4.375 6.89946 4.5067 7.13388 4.74112C7.3683 4.97554 7.5 5.29348 7.5 5.625C7.5 5.95652 7.3683 6.27446 7.13388 6.50888C6.89946 6.7433 6.58152 6.875 6.25 6.875C5.91848 6.875 5.60054 6.7433 5.36612 6.50888C5.1317 6.27446 5 5.95652 5 5.625Z" fill="white"/>
</svg>
