<svg width="18" height="12" viewBox="0 0 18 12" fill="none" xmlns="http://www.w3.org/2000/svg">
<path fill-rule="evenodd" clip-rule="evenodd" d="M2.23214 1.33929V2.23214H1.33929C0.984085 2.23214 0.643433 2.37325 0.392268 2.62441C0.141103 2.87557 0 3.21623 0 3.57143V9.82143C0 10.1766 0.141103 10.5173 0.392268 10.7684C0.643433 11.0196 0.984085 11.1607 1.33929 11.1607H13.5417C13.7175 11.1607 13.8917 11.1261 14.0542 11.0588C14.2167 10.9915 14.3643 10.8928 14.4887 10.7684C14.613 10.6441 14.7117 10.4964 14.779 10.334C14.8463 10.1715 14.881 9.99731 14.881 9.82143V8.92857H15.7738C16.5119 8.92857 17.1131 8.32738 17.1131 7.58929V1.33929C17.1131 0.601191 16.5119 0 15.7738 0H3.57143C2.83333 0 2.23214 0.601191 2.23214 1.33929ZM3.72024 1.4881V2.23214H13.5417C13.7175 2.23214 13.8917 2.26678 14.0542 2.33409C14.2167 2.4014 14.3643 2.50005 14.4887 2.62441C14.613 2.74877 14.7117 2.89642 14.779 3.05891C14.8463 3.2214 14.881 3.39555 14.881 3.57143V7.44048H15.625V1.4881H3.72024ZM5.95238 6.69643C5.95238 6.30176 6.10916 5.92326 6.38823 5.64419C6.66731 5.36511 7.04581 5.20833 7.44048 5.20833C7.83514 5.20833 8.21365 5.36511 8.49272 5.64419C8.77179 5.92326 8.92857 6.30176 8.92857 6.69643C8.92857 7.0911 8.77179 7.4696 8.49272 7.74867C8.21365 8.02774 7.83514 8.18452 7.44048 8.18452C7.04581 8.18452 6.66731 8.02774 6.38823 7.74867C6.10916 7.4696 5.95238 7.0911 5.95238 6.69643Z" fill="#008473"/>
</svg>
