<svg width="12" height="12" viewBox="0 0 12 12" fill="none" xmlns="http://www.w3.org/2000/svg">
<path d="M0.5 4.999C0.367392 4.999 0.240215 4.94632 0.146447 4.85255C0.0526785 4.75879 0 4.63161 0 4.499V0.5C0 0.367392 0.0526785 0.240215 0.146447 0.146447C0.240215 0.0526785 0.367392 0 0.5 0H4.5C4.63261 0 4.75979 0.0526785 4.85355 0.146447C4.94732 0.240215 5 0.367392 5 0.5V4.499C5 4.63161 4.94732 4.75879 4.85355 4.85255C4.75979 4.94632 4.63261 4.999 4.5 4.999H0.5ZM7.5 4.999C7.36739 4.999 7.24021 4.94632 7.14645 4.85255C7.05268 4.75879 7 4.63161 7 4.499V0.5C7 0.367392 7.05268 0.240215 7.14645 0.146447C7.24021 0.0526785 7.36739 0 7.5 0H11.499C11.6316 0 11.7588 0.0526785 11.8526 0.146447C11.9463 0.240215 11.999 0.367392 11.999 0.5V4.499C11.999 4.63161 11.9463 4.75879 11.8526 4.85255C11.7588 4.94632 11.6316 4.999 11.499 4.999H7.5ZM0.5 11.999C0.367392 11.999 0.240215 11.9463 0.146447 11.8526C0.0526785 11.7588 0 11.6316 0 11.499V7.499C0 7.36639 0.0526785 7.23921 0.146447 7.14545C0.240215 7.05168 0.367392 6.999 0.5 6.999H4.5C4.63261 6.999 4.75979 7.05168 4.85355 7.14545C4.94732 7.23921 5 7.36639 5 7.499V11.499C5 11.6316 4.94732 11.7588 4.85355 11.8526C4.75979 11.9463 4.63261 11.999 4.5 11.999H0.5ZM7.5 11.999C7.36739 11.999 7.24021 11.9463 7.14645 11.8526C7.05268 11.7588 7 11.6316 7 11.499V7.499C7 7.36639 7.05268 7.23921 7.14645 7.14545C7.24021 7.05168 7.36739 6.999 7.5 6.999H11.499C11.6316 6.999 11.7588 7.05168 11.8526 7.14545C11.9463 7.23921 11.999 7.36639 11.999 7.499V11.499C11.999 11.6316 11.9463 11.7588 11.8526 11.8526C11.7588 11.9463 11.6316 11.999 11.499 11.999H7.5Z" fill="#008473"/>
</svg>
