<svg width="24" height="24" viewBox="0 0 24 24" fill="none" xmlns="http://www.w3.org/2000/svg">
<path d="M10.568 2.9751C10.1773 3.29469 9.91754 3.74662 9.83803 4.2451C9.8053 4.39887 9.73678 4.54277 9.63803 4.6651C9.54348 4.7922 9.42009 4.89502 9.27803 4.9651L8.48803 5.3451C7.8547 5.65632 7.29286 6.09558 6.83803 6.6351C5.43803 8.3051 5.43803 9.0551 5.43803 11.9051C5.43803 13.1951 4.06803 14.3651 3.70803 15.5251C3.48803 16.2151 3.36803 17.7751 5.18803 17.7751H18.768C19.034 17.7867 19.2987 17.7317 19.538 17.6151C19.7765 17.4963 19.9824 17.3213 20.138 17.1051C20.286 16.8871 20.378 16.6361 20.408 16.3751C20.4306 16.1083 20.3859 15.8401 20.278 15.5951C19.918 14.5051 18.488 13.2051 18.488 11.9151V9.7851" stroke="#1D1D1D" stroke-width="1.5" stroke-linecap="round" stroke-linejoin="round"/>
<path d="M15.228 17.7751C15.231 18.2021 15.153 18.6261 14.998 19.0251C14.8304 19.4201 14.5895 19.7798 14.288 20.0851C13.9832 20.3909 13.6196 20.6318 13.2192 20.7934C12.8187 20.9549 12.3897 21.0338 11.958 21.0251C11.5255 21.0278 11.0968 20.9428 10.698 20.7751C9.89849 20.4405 9.2627 19.8047 8.92804 19.0051C8.77118 18.6143 8.69302 18.1963 8.69804 17.7751" stroke="#1D1D1D" stroke-width="1.5" stroke-linecap="round" stroke-linejoin="round"/>
<path d="M15.228 7.9751C16.6087 7.9751 17.728 6.85581 17.728 5.4751C17.728 4.09439 16.6087 2.9751 15.228 2.9751C13.8473 2.9751 12.728 4.09439 12.728 5.4751C12.728 6.85581 13.8473 7.9751 15.228 7.9751Z" stroke="#1D1D1D" stroke-width="1.5"/>
</svg>
