<svg width="10" height="12" viewBox="0 0 10 12" fill="none" xmlns="http://www.w3.org/2000/svg">
<path d="M4.66667 0C2.21667 0 0 1.87833 0 4.78333C0 6.63833 1.42917 8.82 4.28167 11.3342C4.50333 11.5267 4.83583 11.5267 5.0575 11.3342C7.90417 8.82 9.33333 6.63833 9.33333 4.78333C9.33333 1.87833 7.11667 0 4.66667 0ZM4.66667 5.83333C4.025 5.83333 3.5 5.30833 3.5 4.66667C3.5 4.025 4.025 3.5 4.66667 3.5C5.30833 3.5 5.83333 4.025 5.83333 4.66667C5.83333 5.30833 5.30833 5.83333 4.66667 5.83333Z" fill="#008473"/>
</svg>
