<svg width="18" height="18" viewBox="0 0 18 18" fill="none" xmlns="http://www.w3.org/2000/svg">
<path d="M9 9C7.7625 9 6.70312 8.55937 5.82187 7.67812C4.94062 6.79688 4.5 5.7375 4.5 4.5C4.5 3.2625 4.94062 2.20313 5.82187 1.32188C6.70312 0.440625 7.7625 0 9 0C10.2375 0 11.2969 0.440625 12.1781 1.32188C13.0594 2.20313 13.5 3.2625 13.5 4.5C13.5 5.7375 13.0594 6.79688 12.1781 7.67812C11.2969 8.55937 10.2375 9 9 9ZM0 18V14.85C0 14.2125 0.16425 13.6267 0.49275 13.0927C0.82125 12.5587 1.257 12.1508 1.8 11.8688C2.9625 11.2875 4.14375 10.8517 5.34375 10.5615C6.54375 10.2712 7.7625 10.1257 9 10.125C10.2375 10.1243 11.4562 10.2697 12.6562 10.5615C13.8562 10.8532 15.0375 11.289 16.2 11.8688C16.7437 12.15 17.1799 12.558 17.5084 13.0927C17.8369 13.6275 18.0007 14.2133 18 14.85V18H0ZM2.25 15.75H15.75V14.85C15.75 14.6438 15.6986 14.4563 15.5959 14.2875C15.4931 14.1188 15.357 13.9875 15.1875 13.8938C14.175 13.3875 13.1531 13.008 12.1219 12.7552C11.0906 12.5025 10.05 12.3757 9 12.375C7.95 12.3743 6.90937 12.501 5.87812 12.7552C4.84687 13.0095 3.825 13.389 2.8125 13.8938C2.64375 13.9875 2.50762 14.1188 2.40412 14.2875C2.30062 14.4563 2.24925 14.6438 2.25 14.85V15.75ZM9 6.75C9.61875 6.75 10.1486 6.52988 10.5896 6.08963C11.0306 5.64938 11.2507 5.1195 11.25 4.5C11.2492 3.8805 11.0291 3.351 10.5896 2.9115C10.1501 2.472 9.62025 2.2515 9 2.25C8.37975 2.2485 7.85025 2.469 7.4115 2.9115C6.97275 3.354 6.75225 3.8835 6.75 4.5C6.74775 5.1165 6.96825 5.64638 7.4115 6.08963C7.85475 6.53288 8.38425 6.753 9 6.75Z" fill="#B9B9B9"/>
</svg>
