<svg width="14" height="14" viewBox="0 0 14 14" fill="none" xmlns="http://www.w3.org/2000/svg">
<path fill-rule="evenodd" clip-rule="evenodd" d="M4.823 1.62698C4.84618 1.6036 4.87374 1.58502 4.90412 1.57232C4.93449 1.55963 4.96708 1.55305 5 1.55298H9C9.0663 1.55298 9.12989 1.57932 9.17678 1.6262C9.22366 1.67309 9.25 1.73667 9.25 1.80298V2.99998H4.75V1.80298C4.75015 1.73698 4.77639 1.67371 4.823 1.62698ZM3.25 2.99998V1.80298C3.25 1.33885 3.43437 0.89373 3.76256 0.565542C4.09075 0.237353 4.53587 0.0529785 5 0.0529785H9C9.46413 0.0529785 9.90925 0.237353 10.2374 0.565542C10.5656 0.89373 10.75 1.33885 10.75 1.80298V2.99998H12.5C12.8978 2.99998 13.2794 3.15801 13.5607 3.43932C13.842 3.72062 14 4.10215 14 4.49998V12.5C14 12.8978 13.842 13.2793 13.5607 13.5606C13.2794 13.8419 12.8978 14 12.5 14H1.5C1.10218 14 0.720644 13.8419 0.43934 13.5606C0.158035 13.2793 0 12.8978 0 12.5L0 4.49998C0 4.10215 0.158035 3.72062 0.43934 3.43932C0.720644 3.15801 1.10218 2.99998 1.5 2.99998H3.25ZM2.875 6.57798C2.875 6.23298 3.155 5.95298 3.5 5.95298H10.5C10.6658 5.95298 10.8247 6.01883 10.9419 6.13604C11.0592 6.25325 11.125 6.41222 11.125 6.57798C11.125 6.74374 11.0592 6.90271 10.9419 7.01992C10.8247 7.13713 10.6658 7.20298 10.5 7.20298H3.5C3.33424 7.20298 3.17527 7.13713 3.05806 7.01992C2.94085 6.90271 2.875 6.74374 2.875 6.57798ZM3.5 9.79698C3.41792 9.79698 3.33665 9.81314 3.26082 9.84455C3.18499 9.87596 3.11609 9.922 3.05806 9.98004C3.00002 10.0381 2.95398 10.107 2.92258 10.1828C2.89117 10.2586 2.875 10.3399 2.875 10.422C2.875 10.5041 2.89117 10.5853 2.92258 10.6612C2.95398 10.737 3.00002 10.8059 3.05806 10.8639C3.11609 10.922 3.18499 10.968 3.26082 10.9994C3.33665 11.0308 3.41792 11.047 3.5 11.047H10.5C10.5821 11.047 10.6633 11.0308 10.7392 10.9994C10.815 10.968 10.8839 10.922 10.9419 10.8639C11 10.8059 11.046 10.737 11.0774 10.6612C11.1088 10.5853 11.125 10.5041 11.125 10.422C11.125 10.3399 11.1088 10.2586 11.0774 10.1828C11.046 10.107 11 10.0381 10.9419 9.98004C10.8839 9.922 10.815 9.87596 10.7392 9.84455C10.6633 9.81314 10.5821 9.79698 10.5 9.79698H3.5Z" fill="#008473"/>
</svg>
