<svg width="16" height="16" viewBox="0 0 16 16" fill="none" xmlns="http://www.w3.org/2000/svg">
<g clip-path="url(#clip0_1001_6417)">
<path d="M11.3998 6.85004C11.4908 6.75574 11.5412 6.62944 11.5401 6.49834C11.539 6.36724 11.4864 6.24184 11.3937 6.14913C11.301 6.05643 11.1756 6.00384 11.0445 6.0027C10.9134 6.00157 10.7871 6.05196 10.6928 6.14304L7.04277 9.79304L5.39277 8.14304C5.29847 8.05196 5.17216 8.00156 5.04107 8.0027C4.90997 8.00384 4.78456 8.05643 4.69186 8.14913C4.59915 8.24184 4.54657 8.36724 4.54543 8.49834C4.54429 8.62944 4.59469 8.75574 4.68577 8.85004L6.68577 10.85C6.77953 10.9438 6.90668 10.9964 7.03927 10.9964C7.17185 10.9964 7.299 10.9438 7.39277 10.85L11.3928 6.85004H11.3998Z" fill="white"/>
<path fill-rule="evenodd" clip-rule="evenodd" d="M8 0C3.58 0 0 3.58 0 8C0 12.42 3.58 16 8 16C12.42 16 16 12.42 16 8C16 3.58 12.42 0 8 0ZM1 8C1 4.13 4.13 1 8 1C11.87 1 15 4.13 15 8C15 11.87 11.87 15 8 15C4.13 15 1 11.87 1 8Z" fill="white"/>
</g>
<defs>
<clipPath id="clip0_1001_6417">
<rect width="16" height="16" fill="white"/>
</clipPath>
</defs>
</svg>
