<svg width="11" height="11" viewBox="0 0 11 11" fill="none" xmlns="http://www.w3.org/2000/svg">
<path d="M5.33333 5.33333C4.6 5.33333 3.97222 5.07222 3.45 4.55C2.92778 4.02778 2.66667 3.4 2.66667 2.66667C2.66667 1.93333 2.92778 1.30556 3.45 0.783333C3.97222 0.261111 4.6 0 5.33333 0C6.06667 0 6.69444 0.261111 7.21667 0.783333C7.73889 1.30556 8 1.93333 8 2.66667C8 3.4 7.73889 4.02778 7.21667 4.55C6.69444 5.07222 6.06667 5.33333 5.33333 5.33333ZM0 9.33333V8.8C0 8.42222 0.0973335 8.07511 0.292 7.75867C0.486667 7.44222 0.744889 7.20044 1.06667 7.03333C1.75556 6.68889 2.45556 6.43067 3.16667 6.25867C3.87778 6.08667 4.6 6.00044 5.33333 6C6.06667 5.99956 6.78889 6.08578 7.5 6.25867C8.21111 6.43156 8.91111 6.68978 9.6 7.03333C9.92222 7.2 10.1807 7.44178 10.3753 7.75867C10.57 8.07556 10.6671 8.42267 10.6667 8.8V9.33333C10.6667 9.7 10.5362 10.014 10.2753 10.2753C10.0144 10.5367 9.70044 10.6671 9.33333 10.6667H1.33333C0.966667 10.6667 0.652889 10.5362 0.392 10.2753C0.131111 10.0144 0.000444444 9.70044 0 9.33333Z" fill="#008473"/>
</svg>
